<?xml version="1.0" encoding="UTF-8"?>
<svg version="1.1" viewBox="-15.003 -8.19 1029.996 562.375" xmlns="http://www.w3.org/2000/svg">
<path d="m121.2 544.94c-19.63-2.4624-42.374-11.049-59.541-22.478-19.688-13.107-38.368-34.655-48.338-55.757-9.1843-19.44-12.439-33.083-13.202-55.329-0.87776-25.614 2.902-43.9 13.658-66.072 5.8102-11.977 16.606-27.947 18.218-26.95 0.46602 0.28803 0.61174-0.0902 0.32381-0.84062-0.77314-2.0148 19.177-20.727 28.985-27.186 10.389-6.8418 24.751-13.746 34.933-16.793l7.7907-2.3316-0.78036-9.5143c-1.3503-16.463-0.75161-47.447 1.1611-60.09 6.7315-44.495 25.438-85.271 54.97-119.82 8.9201-10.436 22.192-23.295 31.718-30.731 5.712-4.4585 21.775-15.697 22.435-15.697 0.27407 0 2.5406-1.3784 5.0368-3.0631 6.6062-4.4586 29.52-15.175 41.222-19.279 25.686-9.0079 49.995-13.035 78.522-13.008 20.088 0.0191 28.863 0.84907 47.069 4.4517 65.453 12.952 122.49 53.804 157.22 112.6 2.7595 4.672 5.0172 8.8763 5.0172 9.3428s0.61075 1.355 1.3572 1.9746c1.04 0.86312 3.333 0.21355 9.81-2.7789 11.098-5.1276 24.471-9.558 37.155-12.309 8.701-1.8874 13.391-2.2305 30.794-2.253 23.318-0.0302 30.704 1.0672 50.216 7.4609 36.652 12.01 70.255 39.407 87.966 71.719 1.7738 3.236 3.4095 6.1851 3.635 6.5536 0.22546 0.36846 1.6452 0.0582 3.1551-0.68951 3.9736-1.9678 20.964-5.2208 34.292-6.5653 11.9-1.2005 28.764-0.72847 41.448 1.1603 7.9022 1.1766 30.874 6.8453 31.659 7.8126 0.2754 0.33912 1.4021 0.771 2.5037 0.95977 6.1792 1.0588 28.053 12.086 40.1 20.215 52.421 35.375 83.138 99.121 77.654 161.15-5.1415 58.153-33.705 105.77-82.62 137.73-5.8126 3.7979-22.476 12.495-24.894 12.993-0.6749 0.13897-3.4805 1.2576-6.2345 2.486-10.403 4.6397-29.474 9.2254-46.068 11.077-11.661 1.3013-707.94 1.1532-718.35-0.15279zm516.66-70.822c11.2-4.2892 18.639-10.878 22.91-20.29 3.3391-7.3588 2.1592-15.827-2.8238-20.266-1.1646-1.0376-1.8694-2.2881-1.566-2.779 0.30336-0.49085 0.18007-0.78452-0.27398-0.6526-0.45405 0.13194-2.6449-0.92865-4.8685-2.3568-2.2236-1.4282-6.8104-3.9938-10.193-5.7013-5.9696-3.0136-9.2988-6.209-9.2988-8.9253 0-0.72871 1.1062-2.4312 2.4582-3.7832 2.1088-2.1089 3.3891-2.4583 9.0093-2.4583 4.0589 0 8.8637 0.80036 12.63 2.1038 3.3434 1.1571 6.2047 1.9458 6.3585 1.7526 1.9902-2.4998 8.6014-12.977 8.6014-13.631 0-1.6195-12.468-5.255-20.221-5.8961-23.081-1.9088-41.326 10.322-42.632 28.581-0.73788 10.313 3.11 16.015 15.282 22.644 10.717 5.8364 13.522 8.1878 13.505 11.318-0.0211 3.7184-0.9464 4.8741-5.3886 6.7302-3.2158 1.3437-4.9513 1.4272-10.799 0.51991-3.8321-0.5946-9.625-2.161-12.873-3.4808l-5.9056-2.3997-4.6396 7.0427c-3.873 5.8791-4.4166 7.2595-3.2897 8.3546 1.585 1.5403 12.918 5.4656 15.781 5.4656 1.0865 0 2.1859 0.34059 2.4432 0.75687 0.93411 1.5115 20.06-0.45232 25.794-2.6485zm-99.106 0.9068c3.5006-1.0925 7.8402-2.8952 9.6437-4.006 4.1993-2.5865 4.232-2.5789 4.232 0.98485v3.0045h26.849l-0.50389-3.7568c-0.34112-2.5433 1.4925-12.329 5.6766-30.296 7.0326-30.198 7.2973-34.397 2.5596-40.609-7.7911-10.215-29.928-12.186-52.973-4.7167-4.4811 1.4524-8.4479 2.6681-8.8151 2.7016-1.6026 0.14599-1.7349 1.5688-0.69505 7.4726 1.0071 5.7174 1.2963 6.2235 3.2372 5.6644 15.793-4.5498 28.185-5.4221 32.924-2.3175 3.047 1.9964 4.1612 6.423 2.964 11.775l-0.78405 3.5053-12.981 0.59575c-7.1396 0.32765-15.009 1.1576-17.488 1.8444-16.538 4.5822-29.063 18.338-29.048 31.901 5e-3 4.672 2.6606 10.735 5.8788 13.425 5.8458 4.885 18.743 6.1283 29.323 2.8266zm-5.7774-15.082c-4.5229-1.3745-5.7366-3.2984-5.0956-8.0774 1.0644-7.9362 8.1568-12.368 22.38-13.984 4.7621-0.54114 8.852-0.79025 9.0887-0.55357 0.23666 0.23667-0.36808 4.1457-1.3439 8.6867l-1.7742 8.2564-6.057 2.8187c-6.9902 3.253-12.742 4.2072-17.198 2.8532zm175.1 15.08c9.2598-2.8602 17.591-8.5872 21.975-15.106 5.2626-7.8252 6.3762-12.02 4.9194-18.529-1.4687-6.5631-6.0883-11.129-17.602-17.398-9.5968-5.2252-12.514-7.6943-12.514-10.593 0-2.3362 3.2314-5.9296 4.3375-4.8234 0.36841 0.36842 0.66984 0.14406 0.66984-0.49856 0-1.9418 12.008-1.4086 18.488 0.82108 3.1803 1.0942 6.1824 1.7423 6.6712 1.4401 0.48886-0.30214 2.7544-3.2966 5.0345-6.6543 3.957-5.8271 4.0601-6.1675 2.2658-7.4796-5.5425-4.0529-22.581-6.3347-32.651-4.3727-17.138 3.3391-29.275 15.727-29.17 29.773 0.0684 9.1504 5.3839 15.841 17.343 21.829 8.8154 4.4138 12.018 7.2182 12.018 10.524 0 3.4009-3.6259 6.6823-8.3665 7.5717-3.858 0.72379-15.983-1.7016-22.154-4.4316l-4.5424-2.0094-5.0427 7.4732c-4.0312 5.9741-4.7343 7.5915-3.5052 8.0632 0.84565 0.32451 1.2914 0.98832 0.99055 1.4751s0.11718 0.63021 0.92896 0.31869c0.81179-0.31152 2.4501-0.0451 3.6407 0.59216 7.5548 4.0434 26.322 5.0861 36.265 2.015zm-508.55-0.99587c12.886-2.1102 17.792-8.3972 22.423-28.735 1.7346-7.6172 4.7499-20.61 6.7006-28.872 6.6486-28.161 12.526-53.986 12.527-55.036 2e-4 -0.71862-14.294-0.96334-45.453-0.77816l-45.453 0.27012-1.1154 4.4298c-0.61346 2.4364-1.1154 4.9062-1.1154 5.4885 0 0.72441 11.385 1.0588 36.053 1.0588 19.829 0 36.053 0.23937 36.053 0.53194 0 0.29256-3.6325 16.179-8.0722 35.303-4.4397 19.124-8.7692 37.81-9.621 41.524-0.85188 3.7142-1.9462 6.5075-2.4318 6.2074-0.48561-0.30014-0.62624 0.12325-0.3125 0.94088 0.97426 2.539-5.0202 4.7189-14.701 5.3461-9.6766 0.62695-9.8394 0.76493-7.572 6.419 0.7449 1.8575 1.6321 4.1659 1.9715 5.1298 0.50602 1.437 1.8401 1.7516 7.4085 1.7468 3.7353-3e-3 9.4554-0.44206 12.711-0.97529zm74.067-0.77154c0.27791-0.96396 5.0662-21.582 10.641-45.819 7.3363-31.896 10.742-44.926 12.331-47.18 6.7199-9.5314 15.114-19.884 15.929-19.645 0.51548 0.15136 0.65232-0.18586 0.30406-0.74937s0.0656-2.0222 0.91964-3.2416c1.5325-2.188 1.4467-2.2544-6.5559-5.0718-4.4598-1.5702-8.2078-2.714-8.3288-2.5419s-2.4106 3.6535-5.088 7.7365c-5.807 8.8555-20.233 24.128-30.212 31.986-5.7858 4.5556-15.705 11.936-17.141 12.753-0.45582 0.2595 6.2335 12.399 6.8426 12.418 0.298 9e-3 4.354-2.1808 9.0132-4.8665 4.6593-2.6857 8.5836-4.7894 8.7206-4.6749 0.13703 0.11453-3.3556 15.488-7.7614 34.163s-8.0106 34.524-8.0106 35.221c0 0.92651 2.4016 1.2665 8.9458 1.2665 7.6596 0 9.0184-0.25197 9.4511-1.7526zm85.257-1.7096c9.4102-4.6041 9.6231-5.1081 18.803-44.523l8.1844-35.14h19.302l1.1397-5.6753c0.62685-3.1214 1.1397-6.0508 1.1397-6.5098 0-0.45897-4.056-0.83448-9.0132-0.83448-6.8083 0-9.0132-0.32415-9.0132-1.325 0-1.1984 6.8871-32.298 11.905-53.758 1.0948-4.682 1.6806-8.8049 1.302-9.162-0.37869-0.35706-12.332-3.9575-26.563-8.001l-25.875-7.3518 5.5043-1.6341c3.0274-0.89875 9.263-3.46 13.857-5.6916 34.542-16.78 63.583-50.541 74.272-86.342 4.3651-14.62 5.1266-19.944 5.1564-36.049 0.0341-18.466-1.4994-26.025-8.0257-39.559-13.486-27.967-41.204-43.732-79.574-45.256-31.709-1.2595-60.322 6.6349-86.491 23.863-3.2299 2.1264-6.2343 3.8662-6.6765 3.8662s-0.95412 0.34696-1.1377 0.77101c-0.1836 0.42407-3.7173 3.5186-7.8526 6.8766-7.172 5.824-17.408 16.582-23.447 24.641-1.5436 2.0602-3.2767 3.4553-3.8514 3.1002-0.58825-0.36357-0.74791-0.16536-0.36537 0.45363 0.37369 0.60465-0.84823 3.491-2.7154 6.4142-16.85 26.38-24.972 61.64-20.269 88 2.6962 15.113 9.3711 27.727 20.629 38.983 12.042 12.04 27.189 20.227 58.299 31.512 4.5234 1.6408 7.4776 3.2362 7.106 3.8375-0.36163 0.58514-0.14675 0.72676 0.49805 0.32824 0.62375-0.38552 11.622 3.3397 24.44 8.2782 40.6 15.642 57.12 22.089 57.453 22.422 0.17756 0.17757-0.29559 2.7824-1.0514 5.7885s-2.3518 9.8598-3.5465 15.23l-2.1723 9.7647h-62.762l-1.0845 5.0568c-0.59645 2.7813-1.0844 5.7106-1.0844 6.5098 0 1.2383 4.5716 1.453 30.937 1.453h30.937l-1.7497 7.7617c-4.7374 21.015-12.291 53.166-13.119 55.842-1.3771 4.4482-3.9885 5.5259-15.017 6.1978-5.4755 0.3336-9.9554 0.83019-9.9554 1.1036 0 0.27336 0.98356 3.1946 2.1857 6.4917l2.1857 5.9946 10.827-0.51319c9.0831-0.43054 11.716-0.94842 16.35-3.2154zm-58.588-195.91c-36.41-6.3903-51.111-42.79-36.059-89.282 3.5186-10.868 12.595-28.202 14.236-27.188 0.67524 0.41734 0.81591 0.21877 0.36355-0.51317-1.4326-2.318 15.665-21.101 23.229-25.518 1.0726-0.62642 3.9299-2.4554 6.3496-4.0644 13.552-9.0112 36.578-13.262 52-9.5991 24.228 5.7542 38.025 25.768 38.025 55.161 0 27.713-10.919 54.552-30.473 74.9-15.903 16.549-33.833 25.351-54.152 26.584-4.4065 0.26742-10.49 0.0512-13.52-0.48049zm137.61 175.84 5.1015-23.035 13.52-0.63225c8.0538-0.37662 15.637-1.3008 18.756-2.2859 13.961-4.4088 25.246-12.137 31.685-21.697 1.8223-2.7061 3.4991-4.7343 3.7262-4.5072 0.22711 0.22712 0.50333-0.56355 0.61384-1.757 0.11051-1.1935 0.75364-4.9505 1.4292-8.3489 3.3222-16.713-7.1096-29.393-27.117-32.963-7.8491-1.4004-53.128-2.0367-53.128-0.74651 0 0.78288-25.893 115.13-26.671 117.78-0.48553 1.6557 0.4482 1.7617 13.23 1.5023l13.753-0.27914zm9.6081-42.102c0-0.29661 1.8027-8.3369 4.0059-17.867 2.2032-9.5304 4.0059-17.625 4.0059-17.989 0-1.4228 15.624-0.51291 20.002 1.1649 11.2 4.2923 12.164 17.544 1.9935 27.411-5.8348 5.6605-12.096 7.8192-22.678 7.8192-4.0311 0-7.3293-0.24268-7.3293-0.53928zm-346.68 59.378c1.8761-7.4565 20.198-86.61 20.198-87.259 0-0.34257-3.9736-0.62285-8.8301-0.62285h-8.8301l-1.7928 7.7617c-0.98606 4.2689-5.8004 24.594-10.699 45.168-4.8982 20.573-8.9058 37.812-8.9058 38.308 0 0.49592 4.0025 0.90169 8.8944 0.90169h8.8944zm33.781-25.827c4.9919-3.6795 12.127-9.5436 15.855-13.031l6.7789-6.3415 8.2022 8.4538c4.5112 4.6496 10.476 11.084 13.255 14.299l5.053 5.8452 6.6881-5.781 6.6881-5.781-6.7556-7.0748c-3.7156-3.8911-10.431-10.354-14.923-14.363l-8.1677-7.2882 3.8124-5.7314c4.0399-6.0735 10.456-18.203 9.868-18.656-0.70193-0.54131-15.011-5.6036-15.839-5.6036-0.46951 0-2.6663 3.2674-4.8818 7.2609-4.0335 7.2705-5.1157 8.87-12.789 18.903-6.879 8.9937-24.688 25.682-35.456 33.224l-2.088 1.4625 3.2329 6.5562 3.2329 6.5562 4.5788-3.1095c2.5183-1.7102 8.663-6.12 13.655-9.7995zm197.67-0.31494c4.652-1.2789 8.622-2.8165 8.8221-3.417 0.8188-2.4565-12.907-30.779-16.832-34.733-0.58938-0.59366-3.5103 0.29664-7.8307 2.3868l-6.8907 3.3336 3.3262 7.1275c1.8294 3.9201 4.8155 11.734 6.6358 17.365 1.8202 5.6308 3.5348 10.243 3.8102 10.25 0.27541 7e-3 4.3069-1.0342 8.9589-2.3131zm-197.05-67.547 6.6965-3.7623-3.1914-4.2033c-1.7552-2.3118-6.7967-8.075-11.203-12.807l-8.0118-8.6039-5.5081 4.15c-3.0294 2.2825-5.3668 4.6513-5.194 5.264 0.17274 0.61271 3.3718 4.9715 7.1091 9.6861 3.7372 4.7146 7.591 9.8114 8.564 11.326s2.2805 2.7448 2.9057 2.7334c0.62516-0.0114 4.1501-1.7138 7.8332-3.7831zm338.38-51.862c2.9917-0.8717 7.7986-2.8998 10.682-4.5068s5.3842-2.9219 5.5574-2.9219c0.17314 0 0.13067 1.5774-0.0944 3.5053l-0.4092 3.5053h24.088l1.0472-4.7571c5.5111-25.035 17.303-74.23 18.124-75.614 0.96998-1.6336 0.13408-1.7526-12.303-1.7526h-13.344l-6.7654 29.294c-3.8215 16.547-7.4473 30.047-8.3326 31.026-2.7769 3.0685-12.3 6.0314-17.245 5.3653-5.9165-0.797-8.0849-2.9075-8.0849-7.8692 0-2.182 2.704-15.691 6.0088-30.02s6.0088-26.445 6.0088-26.924c0-0.47926-5.6247-0.87139-12.499-0.87139-12.132 0-12.515 0.0661-13.047 2.2534-7.9295 32.647-13.511 59.242-13.511 64.374 0 7.6622 2.5548 11.998 8.9832 15.246 5.4814 2.7692 16.885 3.0725 25.136 0.66847zm171.18-1.4027c3.5803-1.2468 6.833-2.5573 7.2284-2.9123 0.39534-0.35499 0.22618-3.6184-0.3759-7.252l-1.0947-6.6066-4.3181 1.2996c-7.0472 2.121-17.961 2.8374-22.723 1.4916-8.4057-2.3757-13.275-9.2218-13.221-18.586 0.0705-12.022 6.2842-22.898 16.757-29.329 5.0125-3.0784 6.8343-3.6149 13.605-4.0069 5.528-0.32002 9.5222 0.0431 13.638 1.2397 6.6164 1.9235 5.8792 2.3995 10.682-6.8969 2.866-5.5471 2.9547-6.0286 1.3292-7.2172-2.1551-1.5759-9.6269-3.0485-19.505-3.8442-29.312-2.3612-57.895 17.721-63.136 44.36-3.8008 19.32 5.0763 34.666 23.071 39.885 7.4175 2.151 29.987 1.188 38.062-1.624zm100.92 1.9861c4.1772 0 4.4212-0.14648 3.7529-2.2534-0.39309-1.2394-0.76756-3.0099-0.83214-3.9345-0.0646-0.92461-0.46913-1.6006-0.89901-1.5022-0.42986 0.0983-6.3747-9.2436-13.211-20.76l-12.429-20.939 8.6683-7.1441c4.7676-3.9292 12.499-10.221 17.181-13.982 4.6819-3.761 10.09-8.131 12.018-9.7114l3.5052-2.8733-13.593-0.0125-13.593-0.0126-17.822 15.571c-9.8021 8.564-17.953 15.437-18.112 15.273-0.15959-0.16392 3.7247-17.633 8.6318-38.82 4.907-21.187 8.9219-39.168 8.9219-39.958 0-1.1826-1.4629-1.3234-8.2913-0.79856-4.5602 0.35054-10.308 0.91383-12.774 1.2517l-4.4824 0.61441-14.445 62.742c-7.9448 34.508-14.646 63.545-14.892 64.525-0.41348 1.6516 0.50613 1.7627 12.44 1.5023l12.887-0.28124 4.1743-18.261c2.2959-10.044 4.3365-18.748 4.5347-19.342 0.19823-0.59471 4.1514 5.82 8.7848 14.255 4.6334 8.435 9.7728 17.766 11.421 20.736l2.9966 5.3994 10.496-0.64221c5.7727-0.35322 12.506-0.64222 14.963-0.64222zm-185.52-4.2564c0.37942-1.7902 4.4712-19.63 9.0928-39.644s8.403-37.002 8.403-37.75c0-1.0559-2.7666-1.429-12.366-1.6678l-12.366-0.30761-5.1492 22.534c-8.73 38.204-13.225 57.532-13.683 58.838-0.33634 0.95945 2.5764 1.2519 12.469 1.2519h12.908zm18.927-99.277c4.0459-3.0861 6.5808-7.3393 6.5808-11.042 0-10.784-12.46-14.156-21.405-5.7918-6.1105 5.7134-6.7508 12.134-1.7506 17.554 2.368 2.5666 3.1328 2.8043 7.8105 2.4274 3.6562-0.29461 6.2408-1.2228 8.764-3.1473z" fill="#F8322B" stroke-width="1.0015"/>
</svg>
